# xmcd CD database file
#
# Track frame offsets:
#	150
#	32140
#	55972
#	95069
#	136316
#	153151
#
# Disc length: 2546 seconds
#
# Revision: 0
# Processed by: cddbd v1.5.1PL0 Copyright (c) Steve Scherf et al.
# Submitted via: CDex 1.51
#
DISCID=4a09f006
DTITLE=Dusko Goykovich - After Hours
DYEAR=1971
DGENRE=Jazz
TTITLE0=Ten To Two Blues
TTITLE1=Remember Those Days
TTITLE2=Old Fisherman's Daughter
TTITLE3=I Love You
TTITLE4=A Child Is Born
TTITLE5=last Minute Blues( Blues To Line)
EXTD=YEAR: 1971
EXTT0=
EXTT1=
EXTT2=
EXTT3=
EXTT4=
EXTT5=
PLAYORDER=
